<svg width="19" height="19" viewBox="0 0 19 19" fill="none" xmlns="http://www.w3.org/2000/svg">
<path d="M9.08505 1.67668C11.4819 1.67668 11.8087 1.67668 12.7892 1.67668C13.6608 1.67668 14.0966 1.89457 14.4234 2.00352C14.8592 2.22141 15.1861 2.33036 15.5129 2.6572C15.8397 2.98404 16.0576 3.31088 16.1666 3.74666C16.2755 4.0735 16.3845 4.50929 16.4934 5.38086C16.4934 6.36138 16.4934 6.57927 16.4934 9.08505C16.4934 11.5908 16.4934 11.8087 16.4934 12.7892C16.4934 13.6608 16.2755 14.0966 16.1666 14.4234C15.9487 14.8592 15.8397 15.1861 15.5129 15.5129C15.1861 15.8397 14.8592 16.0576 14.4234 16.1666C14.0966 16.2755 13.6608 16.3845 12.7892 16.4934C11.8087 16.4934 11.5908 16.4934 9.08505 16.4934C6.57927 16.4934 6.36138 16.4934 5.38086 16.4934C4.50929 16.4934 4.0735 16.2755 3.74666 16.1666C3.31088 15.9487 2.98404 15.8397 2.6572 15.5129C2.33036 15.1861 2.11247 14.8592 2.00352 14.4234C1.89457 14.0966 1.78563 13.6608 1.67668 12.7892C1.67668 11.8087 1.67668 11.5908 1.67668 9.08505C1.67668 6.57927 1.67668 6.36138 1.67668 5.38086C1.67668 4.50929 1.89457 4.0735 2.00352 3.74666C2.22141 3.31088 2.33036 2.98404 2.6572 2.6572C2.98404 2.33036 3.31088 2.11247 3.74666 2.00352C4.0735 1.89457 4.50929 1.78563 5.38086 1.67668C6.36138 1.67668 6.68822 1.67668 9.08505 1.67668ZM9.08505 0.0424805C6.57927 0.0424805 6.36138 0.0424805 5.38086 0.0424805C4.40034 0.0424805 3.74666 0.260374 3.20193 0.478267C2.6572 0.69616 2.11247 1.023 1.56773 1.56773C1.023 2.11247 0.805107 2.54825 0.478267 3.20193C0.260374 3.74666 0.151427 4.40034 0.0424805 5.38086C0.0424805 6.36138 0.0424805 6.68822 0.0424805 9.08505C0.0424805 11.5908 0.0424805 11.8087 0.0424805 12.7892C0.0424805 13.7697 0.260374 14.4234 0.478267 14.9682C0.69616 15.5129 1.023 16.0576 1.56773 16.6024C2.11247 17.1471 2.54825 17.365 3.20193 17.6918C3.74666 17.9097 4.40034 18.0187 5.38086 18.1276C6.36138 18.1276 6.68822 18.1276 9.08505 18.1276C11.4819 18.1276 11.8087 18.1276 12.7892 18.1276C13.7697 18.1276 14.4234 17.9097 14.9682 17.6918C15.5129 17.4739 16.0576 17.1471 16.6024 16.6024C17.1471 16.0576 17.365 15.6218 17.6918 14.9682C17.9097 14.4234 18.0187 13.7697 18.1276 12.7892C18.1276 11.8087 18.1276 11.4819 18.1276 9.08505C18.1276 6.68822 18.1276 6.36138 18.1276 5.38086C18.1276 4.40034 17.9097 3.74666 17.6918 3.20193C17.4739 2.6572 17.1471 2.11247 16.6024 1.56773C16.0576 1.023 15.6218 0.805107 14.9682 0.478267C14.4234 0.260374 13.7697 0.151427 12.7892 0.0424805C11.8087 0.0424805 11.5908 0.0424805 9.08505 0.0424805Z" fill="black"/>
<path d="M9.08505 4.40034C6.47033 4.40034 4.40034 6.47033 4.40034 9.08505C4.40034 11.6998 6.47033 13.7697 9.08505 13.7697C11.6998 13.7697 13.7697 11.6998 13.7697 9.08505C13.7697 6.47033 11.6998 4.40034 9.08505 4.40034ZM9.08505 12.1355C7.45085 12.1355 6.03454 10.8282 6.03454 9.08505C6.03454 7.45085 7.3419 6.03454 9.08505 6.03454C10.7192 6.03454 12.1355 7.3419 12.1355 9.08505C12.1355 10.7192 10.7192 12.1355 9.08505 12.1355Z" fill="black"/>
<path d="M13.8787 5.38086C14.4804 5.38086 14.9682 4.89309 14.9682 4.2914C14.9682 3.6897 14.4804 3.20193 13.8787 3.20193C13.277 3.20193 12.7892 3.6897 12.7892 4.2914C12.7892 4.89309 13.277 5.38086 13.8787 5.38086Z" fill="black"/>
</svg>
