<svg width="15" height="14" viewBox="0 0 15 14" fill="none" xmlns="http://www.w3.org/2000/svg">
<path d="M14.1488 8.75825V13.7459H11.2292V9.06237C11.2292 7.90671 10.8035 7.11599 9.76945 7.11599C8.97873 7.11599 8.49213 7.66341 8.30966 8.15001C8.24884 8.33248 8.18801 8.57578 8.18801 8.8799V13.7459H5.26844C5.26844 13.7459 5.32926 5.83868 5.26844 5.04796H8.18801V6.26445C8.55296 5.65621 9.28285 4.80466 10.8035 4.80466C12.689 4.80466 14.1488 6.08198 14.1488 8.75825ZM2.22722 0.851074C1.25403 0.851074 0.584961 1.52014 0.584961 2.37169C0.584961 3.22323 1.1932 3.8923 2.1664 3.8923C3.20041 3.8923 3.80866 3.22323 3.80866 2.37169C3.86948 1.45932 3.26123 0.851074 2.22722 0.851074ZM0.767434 13.7459H3.68701V5.04796H0.767434V13.7459Z" fill="black"/>
</svg>
